<?xml version="1.0" standalone="no"?><!DOCTYPE svg PUBLIC "-//W3C//DTD SVG 1.1//EN" "http://www.w3.org/Graphics/SVG/1.1/DTD/svg11.dtd"><svg t="1755507135685" class="icon" viewBox="0 0 1024 1024" version="1.1" xmlns="http://www.w3.org/2000/svg" p-id="3199" xmlns:xlink="http://www.w3.org/1999/xlink" width="200" height="200"><path d="M640 358.4c-15.36 0-25.6 10.24-25.6 25.6 0 28.16-7.68 53.76-23.04 71.68-12.8 17.92-38.4 30.72-79.36 30.72-51.2 0-92.16 17.92-117.76 48.64-25.6 30.72-35.84 69.12-35.84 104.96 0 15.36 10.24 25.6 25.6 25.6s25.6-10.24 25.6-25.6c0-28.16 7.68-53.76 23.04-71.68 15.36-17.92 40.96-30.72 79.36-30.72 53.76 0 94.72-17.92 120.32-48.64S665.6 419.84 665.6 384c0-15.36-10.24-25.6-25.6-25.6z" fill="#F9AE55" p-id="3200"></path><path d="M76.8 217.6h870.4v51.2H76.8zM76.8 755.2h870.4v51.2H76.8z" fill="#555555" p-id="3201"></path><path d="M217.6 76.8h51.2v870.4h-51.2zM755.2 76.8h51.2v870.4h-51.2z" fill="#555555" p-id="3202"></path><path d="M179.2 179.2h128v128H179.2zM179.2 716.8h128v128H179.2zM716.8 179.2h128v128h-128zM716.8 716.8h128v128h-128z" fill="#F9AE55" p-id="3203"></path></svg>